<svg xmlns="http://www.w3.org/2000/svg" width="216" height="202.05" viewBox="0 0 216 202.05">
  <g id="Component_47_1" data-name="Component 47 – 1" transform="translate(1)">
    <text id="Excellence" transform="translate(107 193.05)" fill="#112972" font-size="40" font-family="MadaniArabic-SemiBold" font-weight="600"><tspan x="-107" y="0">Excellence</tspan></text>
    <g id="OBJECTS" transform="translate(55.072)">
      <g id="Group_131" data-name="Group 131" transform="translate(0)">
        <path id="Path_65" data-name="Path 65" d="M3.3,114.518a3.309,3.309,0,0,1-3.3-3.3V3.3a3.3,3.3,0,0,1,6.6,0V111.219A3.309,3.309,0,0,1,3.3,114.518Z" fill="#112972"/>
        <path id="Path_66" data-name="Path 66" d="M73.706,57.229H3.3a3.309,3.309,0,0,1-3.3-3.3V8.4A3.309,3.309,0,0,1,3.3,5.1H73.706a3.309,3.309,0,0,1,3.3,3.3v45.53A3.309,3.309,0,0,1,73.706,57.229ZM6.6,50.63H70.407V11.7H6.6Z" transform="translate(0 11.726)" fill="#112972"/>
        <path id="Path_67" data-name="Path 67" d="M70.11,52.162H43.319a3.309,3.309,0,0,1-3.3-3.3V23.425H16.529a3.309,3.309,0,0,1-3.3-3.3V3.3a3.309,3.309,0,0,1,3.3-3.3H70.143a3.26,3.26,0,0,1,2.936,1.815,3.23,3.23,0,0,1-.3,3.431L57.407,26.064,72.782,46.883a3.289,3.289,0,0,1-2.639,5.246Zm-23.491-6.6H63.577L50.644,28.044a3.317,3.317,0,0,1,0-3.926L63.577,6.6H19.8V16.826H43.286a3.309,3.309,0,0,1,3.3,3.3V45.563Z" transform="translate(30.419)" fill="#112972"/>
      </g>
    </g>
  </g>
</svg>
