<svg id="Component_46_1" data-name="Component 46 – 1" xmlns="http://www.w3.org/2000/svg" width="146" height="200.054" viewBox="0 0 146 200.054">
  <text id="Quality" transform="translate(73 191.054)" fill="#112972" font-size="40" font-family="MadaniArabic-SemiBold" font-weight="600"><tspan x="-72" y="0">Quality</tspan></text>
  <g id="OBJECTS" transform="translate(10.346)">
    <g id="Group_130" data-name="Group 130" transform="translate(0)">
      <path id="Path_59" data-name="Path 59" d="M47.823,84.3A41.418,41.418,0,0,1,6.45,42.924V3.3A3.309,3.309,0,0,1,9.749,0H85.9a3.309,3.309,0,0,1,3.3,3.3V42.924A41.418,41.418,0,0,1,47.823,84.3ZM13.049,6.6V42.924a34.774,34.774,0,0,0,69.549,0V6.6Z" transform="translate(14.83)" fill="#112972"/>
      <path id="Path_60" data-name="Path 60" d="M63.479,38.859H13.759a3.3,3.3,0,1,1,0-6.6h49.72a3.3,3.3,0,0,1,0,6.6Z" transform="translate(24.05 74.175)" fill="#112972"/>
      <path id="Path_61" data-name="Path 61" d="M38.431,59.894H18.239a3.309,3.309,0,0,1-3.3-3.3V26.44A3.413,3.413,0,0,1,16.227,23.8a3.317,3.317,0,0,1,2.87-.561,33.687,33.687,0,0,0,18.443,0,3.317,3.317,0,0,1,2.87.561A3.267,3.267,0,0,1,41.7,26.44V56.6a3.309,3.309,0,0,1-3.3,3.3ZM21.539,53.3H35.132V30.564a39.188,39.188,0,0,1-13.593,0Z" transform="translate(34.351 53.172)" fill="#112972"/>
      <path id="Path_62" data-name="Path 62" d="M51.81,54.653a3.26,3.26,0,0,1-1.947-.627L37.458,45.019,25.053,54.026a3.372,3.372,0,0,1-3.893,0,3.272,3.272,0,0,1-1.188-3.7l4.751-14.583L12.317,26.741a3.272,3.272,0,0,1-1.188-3.7,3.33,3.33,0,0,1,3.134-2.276H29.606L34.357,6.186A3.3,3.3,0,0,1,37.491,3.91h0a3.3,3.3,0,0,1,3.134,2.276l4.751,14.583H60.718a3.3,3.3,0,0,1,3.134,2.276,3.338,3.338,0,0,1-1.188,3.7L50.259,35.748,55.01,50.331a3.338,3.338,0,0,1-1.188,3.7,3.26,3.26,0,0,1-1.947.627ZM24.426,27.368l6.137,4.454a3.272,3.272,0,0,1,1.188,3.7l-2.342,7.192,6.137-4.454a3.372,3.372,0,0,1,3.893,0l6.137,4.454-2.342-7.192a3.338,3.338,0,0,1,1.188-3.7l6.137-4.454H43a3.3,3.3,0,0,1-3.134-2.276L37.524,17.9l-2.342,7.192a3.3,3.3,0,0,1-3.134,2.276H24.492Z" transform="translate(25.195 8.99)" fill="#112972"/>
      <path id="Path_63" data-name="Path 63" d="M32.862,51.6a3.392,3.392,0,0,1-2.705-1.386,3.279,3.279,0,0,1,.759-4.586C46.257,34.71,49.788,16.96,50.579,9.669H32.829a3.3,3.3,0,1,1,0-6.6H54.11a3.309,3.309,0,0,1,3.3,3.3c0,1.155-.264,28.7-22.666,44.639a3.479,3.479,0,0,1-1.914.627Z" transform="translate(67.898 7.059)" fill="#112972"/>
      <path id="Path_64" data-name="Path 64" d="M24.58,51.625A3.235,3.235,0,0,1,22.666,51C.264,35.063,0,7.514,0,6.359a3.309,3.309,0,0,1,3.3-3.3H24.58a3.3,3.3,0,1,1,0,6.6H6.83c.792,7.324,4.322,25.041,19.664,35.962a3.3,3.3,0,0,1-1.947,5.972Z" transform="translate(0 7.036)" fill="#112972"/>
    </g>
  </g>
</svg>
