<svg id="Component_45_1" data-name="Component 45 – 1" xmlns="http://www.w3.org/2000/svg" width="212" height="232.135" viewBox="0 0 212 232.135">
  <text id="Innovation" transform="translate(106 223.135)" fill="#112972" font-size="40" font-family="MadaniArabic-SemiBold" font-weight="600"><tspan x="-105" y="0">Innovation</tspan></text>
  <g id="OBJECTS" transform="translate(61.438)">
    <g id="Group_129" data-name="Group 129" transform="translate(0)">
      <g id="Group_128" data-name="Group 128" transform="translate(4.838 27.78)">
        <path id="Path_51" data-name="Path 51" d="M54.842,102.185H27.524a3.309,3.309,0,0,1-3.3-3.3V84.006a39.723,39.723,0,1,1,33.917,0v14.88a3.309,3.309,0,0,1-3.3,3.3Zm-24.019-6.6H51.543V81.862a3.353,3.353,0,0,1,2.046-3.068,33.108,33.108,0,1,0-24.844,0,3.269,3.269,0,0,1,2.046,3.068V95.587Z" transform="translate(-1.46 -8.42)" fill="#112972"/>
        <path id="Path_52" data-name="Path 52" d="M25.318,61.249A16.974,16.974,0,0,1,8.36,44.291v-3.1a3.309,3.309,0,0,1,3.3-3.3H38.977a3.309,3.309,0,0,1,3.3,3.3v3.1A16.974,16.974,0,0,1,25.318,61.249Zm-10.36-16.76a10.362,10.362,0,0,0,20.719,0H14.992Z" transform="translate(14.405 59.34)" fill="#112972"/>
        <path id="Path_53" data-name="Path 53" d="M8.389,43.063a3.309,3.309,0,0,1-3.3-3.3A27.76,27.76,0,0,1,32.837,12.05a3.3,3.3,0,0,1,0,6.6A21.163,21.163,0,0,0,11.689,39.764,3.309,3.309,0,0,1,8.389,43.063Z" transform="translate(6.886 -0.074)" fill="#112972"/>
      </g>
      <path id="Path_54" data-name="Path 54" d="M15.8,21.742a3.309,3.309,0,0,1-3.3-3.3V3.3a3.3,3.3,0,0,1,6.6,0V18.443A3.309,3.309,0,0,1,15.8,21.742Z" transform="translate(28.762)" fill="#112972"/>
      <path id="Path_55" data-name="Path 55" d="M14.331,22.023a3.291,3.291,0,0,1-3.1-2.178L6.05,5.593a3.3,3.3,0,0,1,6.2-2.244L17.432,17.6a3.291,3.291,0,0,1-1.98,4.223,3.352,3.352,0,0,1-1.122.2Z" transform="translate(13.47 2.688)" fill="#112972"/>
      <path id="Path_56" data-name="Path 56" d="M13.047,22.767a3.267,3.267,0,0,1-2.54-1.188L.774,9.966A3.3,3.3,0,0,1,5.821,5.71l9.733,11.613a3.3,3.3,0,0,1-.4,4.652,3.262,3.262,0,0,1-2.112.759Z" transform="translate(0.006 10.456)" fill="#112972"/>
      <path id="Path_57" data-name="Path 57" d="M25.341,22.754a3.383,3.383,0,0,1-2.112-.759,3.3,3.3,0,0,1-.4-4.652L32.566,5.729a3.3,3.3,0,0,1,5.048,4.256L27.881,21.6a3.267,3.267,0,0,1-2.54,1.188Z" transform="translate(50.728 10.47)" fill="#112972"/>
      <path id="Path_58" data-name="Path 58" d="M20.881,22.023a3.352,3.352,0,0,1-1.122-.2A3.291,3.291,0,0,1,17.78,17.6L22.96,3.349a3.3,3.3,0,0,1,6.2,2.244l-5.18,14.253a3.291,3.291,0,0,1-3.1,2.178Z" transform="translate(40.44 2.688)" fill="#112972"/>
    </g>
  </g>
</svg>
