<svg id="Component_44_1" data-name="Component 44 – 1" xmlns="http://www.w3.org/2000/svg" width="172" height="199.51" viewBox="0 0 172 199.51">
  <text id="Integrity" transform="translate(86 190.51)" fill="#112972" font-size="40" font-family="MadaniArabic-SemiBold" font-weight="600"><tspan x="-85" y="0">Integrity</tspan></text>
  <g id="OBJECTS" transform="translate(41.46)">
    <g id="Group_127" data-name="Group 127">
      <path id="Path_47" data-name="Path 47" d="M64.955,65.108H7.019a3.309,3.309,0,0,1-3.3-3.3V43.5a3.19,3.19,0,0,1,.561-1.815L17.346,21.855a3.283,3.283,0,0,1,2.738-1.485H51.922a3.24,3.24,0,0,1,2.738,1.485L67.726,41.683a3.19,3.19,0,0,1,.561,1.815V61.809a3.309,3.309,0,0,1-3.3,3.3Zm-54.669-6.6h51.37V44.488L50.108,26.969H21.833L10.286,44.488Z" transform="translate(8.553 46.836)" fill="#112972"/>
      <path id="Path_48" data-name="Path 48" d="M64.978,111.944H7.042a3.309,3.309,0,0,1-3.3-3.3V90.334A3.19,3.19,0,0,1,4.3,88.52L25.749,55.956,4.271,23.425A3.19,3.19,0,0,1,3.71,21.61V3.3A3.309,3.309,0,0,1,7.009,0H64.978a3.309,3.309,0,0,1,3.3,3.3V21.61a3.19,3.19,0,0,1-.561,1.815L46.271,55.989,67.716,88.553a3.19,3.19,0,0,1,.561,1.815v18.311a3.309,3.309,0,0,1-3.3,3.3Zm-54.669-6.6h51.37V91.324L39.573,57.77a3.3,3.3,0,0,1,0-3.629L61.678,20.587V6.6H10.342V20.62L32.447,54.174a3.3,3.3,0,0,1,0,3.629L10.342,91.357v14.022Z" transform="translate(8.53)" fill="#112972"/>
      <path id="Path_49" data-name="Path 49" d="M85.781,6.6H3.3A3.3,3.3,0,1,1,3.3,0H85.781a3.3,3.3,0,1,1,0,6.6Z" fill="#112972"/>
      <path id="Path_50" data-name="Path 50" d="M85.781,38.529H3.3a3.3,3.3,0,1,1,0-6.6H85.781a3.3,3.3,0,1,1,0,6.6Z" transform="translate(0 73.416)" fill="#112972"/>
    </g>
  </g>
</svg>
