<svg xmlns="http://www.w3.org/2000/svg" width="71.126" height="101.608" viewBox="0 0 71.126 101.608">
  <path id="Icon_material-lightbulb-outline" data-name="Icon material-lightbulb-outline" d="M27.822,99.528a5.1,5.1,0,0,0,5.08,5.08H53.224a5.1,5.1,0,0,0,5.08-5.08v-5.08H27.822ZM43.063,3A35.548,35.548,0,0,0,22.741,67.724V79.206a5.1,5.1,0,0,0,5.08,5.08H58.3a5.1,5.1,0,0,0,5.08-5.08V67.724A35.548,35.548,0,0,0,43.063,3ZM57.542,59.392l-4.318,3.048V74.126H32.9V62.441l-4.318-3.048a25.4,25.4,0,1,1,28.958,0Z" transform="translate(-7.5 -3)" fill="#eb2c2e"/>
</svg>
