<svg xmlns="http://www.w3.org/2000/svg" width="346.827" height="395.181" viewBox="0 0 346.827 395.181">
  <g id="Group_46" data-name="Group 46" transform="translate(-45.118 -28.487)">
    <path id="Path_26" data-name="Path 26" d="M391.945,225.458c0-84.491-60.742-155.049-140.848-170.334a33.226,33.226,0,0,0-65.132,0C105.86,70.408,45.118,140.967,45.118,225.458c0,84.406,60.627,154.916,140.622,170.293a33.218,33.218,0,0,0,65.585,0C331.318,380.377,391.945,309.869,391.945,225.458ZM238.3,382a158.751,158.751,0,0,1-39.528,0,21.488,21.488,0,0,1,39.528,0Zm-19.763-24.78a33.04,33.04,0,0,0-11.7,2.129c-68.659-5.945-122.716-63.718-122.716-133.893,0-69.366,52.817-126.622,120.346-133.676a33.133,33.133,0,0,0,28.128,0c67.53,7.053,120.346,64.311,120.346,133.676,0,70.175-54.056,127.949-122.714,133.9a33.04,33.04,0,0,0-11.695-2.131Zm0-274.033a21.511,21.511,0,0,1-20.2-14.223,159.01,159.01,0,0,1,40.4,0,21.511,21.511,0,0,1-20.2,14.224Zm0-42.991a21.523,21.523,0,0,1,19.723,12.974,172.986,172.986,0,0,0-39.45,0A21.523,21.523,0,0,1,218.532,40.2ZM60.752,225.458c0-76.077,54.116-139.741,125.869-154.536a33.3,33.3,0,0,0,10.912,16.493C130.472,97.573,78.909,155.606,78.909,225.458c0,70.314,52.249,128.646,119.959,138.231a33.347,33.347,0,0,0-11.886,16.376C115.047,365.409,60.752,301.655,60.752,225.458Zm157.78,186.479a21.515,21.515,0,0,1-20.213-14.253,173.086,173.086,0,0,0,40.425,0A21.512,21.512,0,0,1,218.532,411.937Zm31.552-31.874A33.347,33.347,0,0,0,238.2,363.686c67.71-9.587,119.957-67.916,119.957-138.231,0-69.852-51.561-127.885-118.622-138.043A33.3,33.3,0,0,0,250.438,70.92c71.757,14.8,125.869,78.464,125.869,154.536,0,76.2-54.294,139.953-126.223,154.61Z" fill="#ee5913"/>
    <g id="Group_27" data-name="Group 27" transform="translate(139.589 129.536)">
      <path id="Path_27" data-name="Path 27" d="M146.984,106.442c4.1.755,6.085,2.864,6.643,7.12a54.629,54.629,0,0,1,.239,6.443c0,6.4-.677,8.991-2.944,10.861-1.591,1.352-3.819,1.99-7.676,2.148-1.432.08-4.973.118-7.558.118-6.325,0-9.548-.118-11.139-.438-2.943-.516-4.653-1.63-5.646-3.58-1.035-1.949-1.273-3.9-1.273-9.706,0-4.454.08-5.569.555-7.359.755-2.825,2.307-4.336,5.291-5.212,2.228-.636,4.653-.8,11.655-.8C142.768,106.043,145.115,106.123,146.984,106.442Zm-19.81,7.04c-1.074.833-1.388,2.148-1.388,5.967,0,3.9.317,5.33,1.312,6.165,1.075.876,2.387,1.035,8.474,1.035,6.961,0,8.393-.239,9.309-1.511.755-.955.953-2.307.953-5.847,0-6.682-.118-6.762-10.063-6.762-5.932,0-7.563.2-8.6.954Z" transform="translate(-117.631 -106.043)" fill="#fff"/>
      <path id="Path_28" data-name="Path 28" d="M158.376,106.257v13.127a19.509,19.509,0,0,0,.118,3.7c.4,2.984,1.71,3.58,7.757,3.58s7.718-.159,8.712-.914c.8-.6,1.193-1.75,1.234-3.78.039-.6.039-.6.039-3.54V106.257h8.075v13.922c.08,6.563-.477,8.515-2.825,10.621-1.908,1.472-4.3,2.108-7.757,2.148-1.233.039-1.949.039-3.54.039l-3.024.041c-7.478-.041-8.951-.12-10.9-.637-4.813-1.471-6.085-3.98-5.966-11.855V106.256Z" transform="translate(-107.738 -105.978)" fill="#fff"/>
      <path id="Path_29" data-name="Path 29" d="M189.583,106.257v13.127a19.3,19.3,0,0,0,.12,3.7c.4,2.984,1.709,3.58,7.757,3.58s7.717-.159,8.711-.914c.8-.6,1.193-1.75,1.234-3.78.041-.6.041-.6.041-3.54V106.257h8.074v13.922c.081,6.563-.477,8.515-2.823,10.621-1.91,1.472-4.3,2.108-7.757,2.148-1.233.039-1.949.039-3.541.039l-3.023.041c-7.478-.041-8.951-.12-10.9-.637-4.813-1.471-6.087-3.98-5.967-11.855V106.256Z" transform="translate(-98.288 -105.978)" fill="#fff"/>
      <path id="Path_30" data-name="Path 30" d="M238.928,115.293c0-2.069-.914-2.869-3.34-2.944h-2.03l-2.864-.039-2.944.039c-3.858,0-3.858,0-4.813.24a2.731,2.731,0,0,0-2.307,2.784,47.916,47.916,0,0,0-.2,4.853c0,3.579.357,5.012,1.471,5.768.916.6,2.029.833,4.136.875.876.041.876.041,5.848.041,5.289.041,6.285-.239,6.961-1.99a5.85,5.85,0,0,0,.118-1.471v-.637H228.745v-4.933h18.1v3.659c0,4.376-.159,5.923-.677,7.36-.916,2.466-2.784,3.659-6.126,4.018-.833.08-3.261.118-11.1.118-6.085,0-8.433-.118-10.1-.477-2.9-.637-4.615-1.87-5.529-4.058-.795-1.79-.995-3.659-.995-8.592,0-5.688.319-7.959,1.352-9.824,1.193-2.069,3.064-3.147,6.486-3.621a91.239,91.239,0,0,1,10.1-.363c7.24,0,9.548.12,11.217.517,4.1,1.035,5.41,3.1,5.368,8.673Z" transform="translate(-88.956 -106.023)" fill="#fff"/>
    </g>
    <g id="Group_29" data-name="Group 29" transform="translate(99.586 176.138)">
      <path id="Path_31" data-name="Path 31" d="M94.445,141.851s81.68,3.424,96.353,23.966c7.382,10.335-9.255,18.566-27.61,24.193l2.237-4.689s-2.678,2.556-6.6,5.97a316.857,316.857,0,0,1-33.572,7.3s11.078.381,25.612-.688a86.063,86.063,0,0,1-12.587,8.515C127.275,212.1,86.925,217.6,86.925,217.6h63.1l9.792-20.516c22.587-2.48,49.268-8.765,56.909-24.42C232.921,139.467,94.445,141.851,94.445,141.851Z" transform="translate(-86.925 -141.813)" fill="#fff"/>
      <g id="Group_28" data-name="Group 28" transform="translate(60.748 57.039)">
        <path id="Path_32" data-name="Path 32" d="M162.913,200.164h-7.287l-2.207,4.064h-3.887l10.4-18.384h4.2l2.985,18.384h-3.586Zm-.463-3.061-1.067-7.4-4.442,7.4Z" transform="translate(-128.713 -185.518)" fill="#fff"/>
        <path id="Path_33" data-name="Path 33" d="M177.8,197.678l3.813.578a9.784,9.784,0,0,1-3.348,4.735,8.607,8.607,0,0,1-5.23,1.636,6.864,6.864,0,0,1-5.275-2.031,8.333,8.333,0,0,1-1.9-5.894,12.872,12.872,0,0,1,1.273-5.738,9.236,9.236,0,0,1,8.446-5.361,7.109,7.109,0,0,1,4.828,1.6,6.549,6.549,0,0,1,2.169,4.358l-3.624.351a3.856,3.856,0,0,0-1.16-2.326,3.445,3.445,0,0,0-2.289-.722,5.015,5.015,0,0,0-2.929.953,6.446,6.446,0,0,0-2.176,2.978,10.762,10.762,0,0,0-.814,4.045,5,5,0,0,0,1.059,3.41,3.372,3.372,0,0,0,2.64,1.2,4.274,4.274,0,0,0,2.69-.953,5.629,5.629,0,0,0,1.827-2.821Z" transform="translate(-123.768 -185.59)" fill="#fff"/>
        <path id="Path_34" data-name="Path 34" d="M179.036,204.228l3.837-18.384h13.633l-.64,3.072h-9.846l-.878,4.176h9.52l-.64,3.077H184.5l-1.154,4.991h10.7l-.652,3.072Z" transform="translate(-119.778 -185.518)" fill="#fff"/>
        <path id="Path_35" data-name="Path 35" d="M192.627,198.343l3.6-.185a4.033,4.033,0,0,0,.59,2.322,3.876,3.876,0,0,0,3.061.977,4.3,4.3,0,0,0,2.684-.665,2,2,0,0,0,.833-1.607,1.736,1.736,0,0,0-.677-1.378,13.244,13.244,0,0,0-2.616-1.343,24.928,24.928,0,0,1-3.123-1.547,4.5,4.5,0,0,1-1.547-1.611,4.607,4.607,0,0,1-.565-2.32,4.986,4.986,0,0,1,1.681-3.85,6.989,6.989,0,0,1,4.866-1.53,7.475,7.475,0,0,1,5.01,1.518,5.58,5.58,0,0,1,1.95,4.037l-3.624.163a2.948,2.948,0,0,0-.952-2.019,3.6,3.6,0,0,0-2.406-.7,3.556,3.556,0,0,0-2.24.555,1.732,1.732,0,0,0-.67,1.388,1.624,1.624,0,0,0,.614,1.3,12.575,12.575,0,0,0,2.722,1.442,15.263,15.263,0,0,1,4.039,2.221,4.3,4.3,0,0,1,1.3,3.224,5.386,5.386,0,0,1-1.924,4.157,7.753,7.753,0,0,1-5.362,1.723,9.79,9.79,0,0,1-4.106-.795,4.9,4.9,0,0,1-2.452-2.214,6.74,6.74,0,0,1-.678-3.264Z" transform="translate(-115.662 -185.59)" fill="#fff"/>
        <path id="Path_36" data-name="Path 36" d="M205.334,204.228l3.838-18.384H222.8l-.641,3.072H212.32l-.878,4.176h9.52l-.64,3.077H210.8l-1.151,4.988h10.7l-.652,3.072Z" transform="translate(-111.814 -185.518)" fill="#fff"/>
        <path id="Path_37" data-name="Path 37" d="M226.012,204.228h-3.787l3.211-15.313h-5.392l.641-3.072h14.483l-.639,3.072h-5.318Z" transform="translate(-107.36 -185.518)" fill="#fff"/>
        <path id="Path_38" data-name="Path 38" d="M238.055,204.228h-3.787l3.211-15.313h-5.392l.641-3.072h14.483l-.639,3.072h-5.318Z" transform="translate(-103.713 -185.518)" fill="#fff"/>
        <path id="Path_39" data-name="Path 39" d="M242.568,204.228l3.837-18.384h13.633l-.64,3.072h-9.846l-.878,4.176h9.52l-.64,3.077h-9.519l-1.154,4.991h10.7l-.652,3.072Z" transform="translate(-100.538 -185.518)" fill="#fff"/>
        <path id="Path_40" data-name="Path 40" d="M259.562,204.228h-3.787l3.85-18.384h8.165a9.811,9.811,0,0,1,3.279.432,3.711,3.711,0,0,1,1.893,1.587,5.166,5.166,0,0,1,.722,2.8,5.488,5.488,0,0,1-1.4,3.87,6.736,6.736,0,0,1-4.253,1.886,7.376,7.376,0,0,1,1.368,1.717,45.842,45.842,0,0,1,2.822,6.1h-4.063q-.489-1.556-1.919-4.854a5.639,5.639,0,0,0-1.655-2.393,3.539,3.539,0,0,0-1.882-.365h-1.541Zm2.169-10.372h2.007a14.266,14.266,0,0,0,4.045-.364,3.239,3.239,0,0,0,1.56-1.141,2.732,2.732,0,0,0,.564-1.63,1.65,1.65,0,0,0-.815-1.5,4.934,4.934,0,0,0-2.169-.3h-4.165Z" transform="translate(-96.539 -185.518)" fill="#fff"/>
        <path id="Path_41" data-name="Path 41" d="M137.339,226.885h-3.787L137.4,208.5h7.474a8.613,8.613,0,0,1,3.153.469,3.82,3.82,0,0,1,1.838,1.556,4.8,4.8,0,0,1,.677,2.591,7.11,7.11,0,0,1-.54,2.709,6.386,6.386,0,0,1-1.323,2.106,5.646,5.646,0,0,1-1.686,1.2,9.087,9.087,0,0,1-2.434.621,28.8,28.8,0,0,1-3.336.125h-2.42Zm2.1-10.057H140.6a13.643,13.643,0,0,0,4-.377,3.281,3.281,0,0,0,1.581-1.2,3.116,3.116,0,0,0,.576-1.82,1.873,1.873,0,0,0-.294-1.09,1.666,1.666,0,0,0-.827-.62,8.767,8.767,0,0,0-2.377-.2h-2.709Z" transform="translate(-133.552 -178.657)" fill="#fff"/>
        <path id="Path_42" data-name="Path 42" d="M157.6,222.821h-7.289l-2.207,4.064h-3.887l10.4-18.385h4.2l2.985,18.384h-3.586Zm-.463-3.059-1.067-7.4-4.442,7.4Z" transform="translate(-130.322 -178.657)" fill="#fff"/>
        <path id="Path_43" data-name="Path 43" d="M163.331,226.885h-3.789L163.39,208.5h8.164a9.819,9.819,0,0,1,3.281.432,3.722,3.722,0,0,1,1.893,1.587,5.169,5.169,0,0,1,.722,2.8,5.487,5.487,0,0,1-1.406,3.87,6.722,6.722,0,0,1-4.251,1.886,7.421,7.421,0,0,1,1.368,1.719,45.811,45.811,0,0,1,2.822,6.094h-4.065q-.489-1.556-1.918-4.853a5.657,5.657,0,0,0-1.656-2.394,3.536,3.536,0,0,0-1.882-.364H164.92Zm2.169-10.372h2.007a14.211,14.211,0,0,0,4.044-.364,3.215,3.215,0,0,0,1.56-1.141,2.72,2.72,0,0,0,.565-1.63,1.652,1.652,0,0,0-.815-1.5,4.957,4.957,0,0,0-2.169-.3h-4.165Z" transform="translate(-125.681 -178.656)" fill="#fff"/>
        <path id="Path_44" data-name="Path 44" d="M180.895,226.885h-3.787l3.211-15.313h-5.392l.64-3.072h14.485l-.64,3.072h-5.319Z" transform="translate(-121.023 -178.657)" fill="#fff"/>
        <path id="Path_45" data-name="Path 45" d="M200.082,226.885h-3.523l-4.968-12.352-2.582,12.352h-3.524l3.837-18.384h3.537l4.978,12.3,2.572-12.3h3.508Z" transform="translate(-117.825 -178.657)" fill="#fff"/>
        <path id="Path_46" data-name="Path 46" d="M199.645,226.885l3.837-18.384h13.633l-.64,3.072H206.63l-.878,4.176h9.52l-.64,3.074h-9.519l-1.154,4.991h10.7L214,226.885Z" transform="translate(-113.537 -178.657)" fill="#fff"/>
        <path id="Path_47" data-name="Path 47" d="M216.639,226.885h-3.787L216.7,208.5h8.165a9.8,9.8,0,0,1,3.279.432,3.718,3.718,0,0,1,1.893,1.587,5.158,5.158,0,0,1,.722,2.8,5.486,5.486,0,0,1-1.4,3.87,6.729,6.729,0,0,1-4.253,1.886,7.388,7.388,0,0,1,1.368,1.719,45.651,45.651,0,0,1,2.822,6.094h-4.064q-.489-1.556-1.92-4.853a5.646,5.646,0,0,0-1.655-2.394,3.542,3.542,0,0,0-1.882-.364h-1.541Zm2.169-10.372h2.007a14.215,14.215,0,0,0,4.045-.364,3.215,3.215,0,0,0,1.56-1.141,2.728,2.728,0,0,0,.566-1.63,1.652,1.652,0,0,0-.815-1.5,4.962,4.962,0,0,0-2.169-.3h-4.165Z" transform="translate(-109.538 -178.657)" fill="#fff"/>
      </g>
    </g>
    <g id="Group_30" data-name="Group 30" transform="translate(153.98 306.327)">
      <path id="Path_48" data-name="Path 48" d="M156.221,265.418H128.7v-6.849c-.07-2.4.74-3.95,2.54-4.938,1.306-.636,1.8-.707,5.4-1.023l8.958-.67a10.4,10.4,0,0,0,2.858-.463c.776-.278,1.163-1.023,1.163-2.258,0-1.163-.352-1.944-.952-2.221-.74-.354-1.339-.388-6.173-.388-3.987,0-5.01.071-5.855.422-1.059.391-1.448,1.166-1.448,2.789v.635H128.7v-1.944a7.568,7.568,0,0,1,.387-3.281q.953-2.646,4.869-3.068a82.32,82.32,0,0,1,8.855-.354c6.844,0,9.277.247,10.935,1.094,1.8.917,2.505,2.646,2.505,6.28,0,3.736-.67,5.4-2.646,6.488-1.128.636-2.645.953-5.646,1.129l-8.89.6c-2.469.212-2.646.246-3.07.494a2.08,2.08,0,0,0-.846,1.87,8.661,8.661,0,0,0,.034.882h21.027Z" transform="translate(-128.664 -241.716)" fill="#fff"/>
      <path id="Path_49" data-name="Path 49" d="M180.579,243.573c1.833,1.481,2.434,3.95,2.434,9.983,0,6.173-.494,8.538-2.118,10.054-1.693,1.588-4.165,2.01-11.994,2.01-9.985,0-11.606-.246-13.264-2.08-1.447-1.623-1.87-3.845-1.87-9.913,0-6.032.671-8.643,2.684-10.126,1.73-1.3,4.975-1.758,12.171-1.758C176.063,241.738,178.849,242.16,180.579,243.573Zm-20.072,10.335c0,5.786.457,6.139,8.079,6.139,3.915,0,5.714-.278,6.6-1.023.916-.776,1.093-1.729,1.093-5.61,0-5.857-.424-6.206-7.9-6.206C161,247.208,160.507,247.626,160.507,253.908Z" transform="translate(-121.077 -241.742)" fill="#fff"/>
      <path id="Path_50" data-name="Path 50" d="M207.749,265.418H180.234v-6.849c-.07-2.4.74-3.95,2.54-4.938,1.306-.636,1.8-.707,5.4-1.023l8.963-.67a10.388,10.388,0,0,0,2.856-.463c.777-.278,1.166-1.023,1.166-2.258,0-1.163-.354-1.944-.953-2.221-.74-.354-1.342-.388-6.173-.388-3.987,0-5.01.071-5.858.422-1.057.391-1.447,1.166-1.447,2.789v.635h-6.49v-1.944a7.546,7.546,0,0,1,.387-3.281q.953-2.646,4.869-3.068a82.327,82.327,0,0,1,8.855-.354c6.844,0,9.276.247,10.936,1.094,1.8.917,2.505,2.646,2.505,6.28,0,3.736-.672,5.4-2.646,6.488-1.128.636-2.647.953-5.646,1.129l-8.892.6c-2.469.212-2.646.246-3.07.494a2.08,2.08,0,0,0-.846,1.87,8.657,8.657,0,0,0,.034.882h21.025Z" transform="translate(-113.059 -241.716)" fill="#fff"/>
      <path id="Path_51" data-name="Path 51" d="M232.107,243.573c1.834,1.481,2.432,3.95,2.432,9.983,0,6.173-.494,8.538-2.118,10.054-1.691,1.588-4.165,2.01-11.993,2.01-9.985,0-11.607-.246-13.264-2.08-1.445-1.623-1.87-3.845-1.87-9.913,0-6.032.672-8.643,2.684-10.126,1.728-1.3,4.973-1.758,12.171-1.758C227.591,241.738,230.381,242.16,232.107,243.573Zm-20.072,10.335c0,5.786.463,6.139,8.076,6.139,3.919,0,5.717-.278,6.6-1.023.916-.776,1.094-1.729,1.094-5.61,0-5.857-.425-6.206-7.9-6.206C212.529,247.208,212.034,247.626,212.034,253.908Z" transform="translate(-105.472 -241.742)" fill="#fff"/>
    </g>
  </g>
</svg>
