<svg xmlns="http://www.w3.org/2000/svg" width="101.608" height="101.608" viewBox="0 0 101.608 101.608">
  <path id="Icon_metro-target" data-name="Icon metro-target" d="M104.179,46.382H94.164A41.378,41.378,0,0,0,59.725,11.942V1.928h-12.7V11.942A41.378,41.378,0,0,0,12.585,46.382H2.571v12.7H12.585A41.377,41.377,0,0,0,47.024,93.522v10.014h12.7V93.522A41.378,41.378,0,0,0,94.164,59.083h10.014v-12.7Zm-22.939,0h-9.9A19.1,19.1,0,0,0,59.725,34.766v-9.9A28.671,28.671,0,0,1,81.24,46.382Zm-27.865,12.7a6.351,6.351,0,1,1,6.35-6.351A6.351,6.351,0,0,1,53.375,59.083Zm-6.35-34.216v9.9A19.1,19.1,0,0,0,35.409,46.382h-9.9A28.672,28.672,0,0,1,47.024,24.867ZM25.51,59.083h9.9A19.1,19.1,0,0,0,47.024,70.7v9.9A28.671,28.671,0,0,1,25.51,59.083ZM59.725,80.6V70.7A19.1,19.1,0,0,0,71.341,59.083h9.9A28.671,28.671,0,0,1,59.725,80.6Z" transform="translate(-2.571 -1.928)" fill="#eb2c2e"/>
</svg>
